# xmcd
#
# Track frame offsets: 
#        150
#        12969
#        24036
#        35237
#        47375
#        60089
#        71411
#        83226
#        95080
#        107064
#        118492
#        129920
#        142702
#        154797
#        166077
#        178399
#        188467
#        201442
#        213999
#        227630
#        240846
#        254974
#        263858
#        277468
#        290790
#        303924
#        317636
#        331327
#
# Disc length: 4588 seconds
#
# Revision: 1
# Processed by: cddbd v1.5.2PL0 Copyright (c) Steve Scherf et al.
# Submitted via: ExactAudioCopyFreeDBPlugin 1.0
#
DISCID=9111ea1c
DTITLE=Martha Reeves and The Vandellas - 50th Anniversary:  The Singles 
DTITLE=Collection, 1962-1972 [box set]
DYEAR=2013
DGENRE=Soul
TTITLE0=I'll Have to Let Him Go
TTITLE1=My Baby Won't Come Back
TTITLE2=Come and Get These Memories
TTITLE3=Jealous Lover
TTITLE4=Heat Wave
TTITLE5=A Love Like Yours (Don't Come Knocking Everyday)
TTITLE6=Quicksand
TTITLE7=Darling, I Hum Our Song
TTITLE8=Live Wire
TTITLE9=Old Love (Let's Try it Again)
TTITLE10=In My Lonely Room
TTITLE11=A Tear for the Girl
TTITLE12=Dancing in the Street
TTITLE13=There He Is (At My Door)
TTITLE14=Wild One
TTITLE15=Dancing Slow
TTITLE16=Nowhere to Run
TTITLE17=Motoring
TTITLE18=You've Been in Love Too Long
TTITLE19=Love (Makes Me Do Foolish Things)
TTITLE20=My Baby Loves Me
TTITLE21=Never Leave Your Baby's Side
TTITLE22=What Am I Going to Do Without Your Love
TTITLE23=Go Ahead and Laugh
TTITLE24=I'm Ready for Love
TTITLE25=He Doesn't Love Her Anymore
TTITLE26=Yo Necesito De Tu Amor (Spanish version of "I'm Ready for Lov
TTITLE26=e")
TTITLE27=Jimmy Mack (Spanish version)
EXTD=
EXTT0=
EXTT1=
EXTT2=
EXTT3=
EXTT4=
EXTT5=
EXTT6=
EXTT7=
EXTT8=
EXTT9=
EXTT10=
EXTT11=
EXTT12=
EXTT13=
EXTT14=
EXTT15=
EXTT16=
EXTT17=
EXTT18=
EXTT19=
EXTT20=
EXTT21=
EXTT22=
EXTT23=
EXTT24=
EXTT25=
EXTT26=
EXTT27=
PLAYORDER=
